<svg style="display: none;" aria-hidden="true" xmlns="http://www.w3.org/2000/svg" xmlns:xlink="http://www.w3.org/1999/xlink"><symbol viewBox="0 0 43 44" fill="none" id="svg-accept"><g clip-path="url(#aclip0_1081_519)" fill="#295C7A"><path d="M14.2896 8.47656H6.59619C5.88419 8.47656 5.30713 9.05362 5.30713 9.76562 5.30713 10.4776 5.88419 11.0547 6.59619 11.0547H14.2896C15.0013 11.0547 15.5787 10.4776 15.5787 9.76562 15.5787 9.05362 15.0013 8.47656 14.2896 8.47656zM14.2896 13.6333H6.59619C5.88419 13.6333 5.30713 14.2104 5.30713 14.9224 5.30713 15.6344 5.88419 16.2114 6.59619 16.2114H14.2896C15.0013 16.2114 15.5787 15.6344 15.5787 14.9224 15.5787 14.2104 15.0013 13.6333 14.2896 13.6333zM14.2896 18.7896H6.59619C5.88419 18.7896 5.30713 19.3666 5.30713 20.0786 5.30713 20.7906 5.88419 21.3677 6.59619 21.3677H14.2896C15.0013 21.3677 15.5787 20.7906 15.5787 20.0786 15.5787 19.3666 15.0013 18.7896 14.2896 18.7896zM14.2896 23.9463H6.59619C5.88419 23.9463 5.30713 24.5233 5.30713 25.2354 5.30713 25.9474 5.88419 26.5244 6.59619 26.5244H14.2896C15.0013 26.5244 15.5787 25.9474 15.5787 25.2354 15.5787 24.5233 15.0013 23.9463 14.2896 23.9463zM14.2896 29.189H6.59619C5.88419 29.189 5.30713 29.7664 5.30713 30.478 5.30713 31.19 5.88419 31.7671 6.59619 31.7671H14.2896C15.0013 31.7671 15.5787 31.19 15.5787 30.478 15.5787 29.7664 15.0013 29.189 14.2896 29.189zM18.6187 11.0547H26.3121C27.0241 11.0547 27.6011 10.4776 27.6011 9.76562 27.6011 9.05362 27.0241 8.47656 26.3121 8.47656H18.6187C17.907 8.47656 17.3296 9.05362 17.3296 9.76562 17.3296 10.4776 17.907 11.0547 18.6187 11.0547zM18.6187 16.2114H26.3121C27.0241 16.2114 27.6011 15.6344 27.6011 14.9224 27.6011 14.2104 27.0241 13.6333 26.3121 13.6333H18.6187C17.907 13.6333 17.3296 14.2104 17.3296 14.9224 17.3296 15.6344 17.907 16.2114 18.6187 16.2114zM23.6131 20.0786C23.6131 19.3666 23.036 18.7896 22.324 18.7896H18.6187C17.907 18.7896 17.3296 19.3666 17.3296 20.0786 17.3296 20.7906 17.907 21.3677 18.6187 21.3677H22.324C23.036 21.3677 23.6131 20.7906 23.6131 20.0786zM35.8248 29.7333C35.2696 29.2879 34.4586 29.3768 34.0127 29.9321L30.6927 34.0712 28.6373 32.582C28.0609 32.1641 27.2546 32.293 26.837 32.8694 26.4194 33.4461 26.5483 34.2521 27.1246 34.6697L30.1738 36.8789C30.402 37.0441 30.6666 37.1243 30.9294 37.1243 31.3077 37.1243 31.6817 36.9581 31.9355 36.6416L36.0239 31.5454C36.4694 30.9902 36.3804 30.1788 35.8248 29.7333z"/><path d="M39.0831 25.7762C37.404 24.0675 35.2465 22.9906 32.9087 22.6734V5.1915C32.9087 2.32904 30.5797 0 27.7172 0H5.19183C2.32904 0 0 2.32904 0 5.1915V35.0524C0 37.9152 2.32904 40.2443 5.1915 40.2443H23.3085C25.3472 42.6391 28.2785 44 31.4498 44C37.3529 44 42.1554 39.1942 42.1554 33.287C42.1554 30.4591 41.0644 27.7917 39.0831 25.7762ZM2.57812 35.0524V5.1915C2.57812 3.7507 3.7507 2.57812 5.19183 2.57812H27.7172C29.1583 2.57812 30.3306 3.7507 30.3306 5.1915V22.6324C24.9514 23.1941 20.7442 27.7578 20.7442 33.287C20.7442 34.8195 21.0638 36.3012 21.6767 37.6658H5.19183C3.7507 37.6658 2.57812 36.4936 2.57812 35.0524ZM31.4498 41.4219C28.8753 41.4219 26.5087 40.2399 24.9561 38.1794C23.8873 36.7604 23.322 35.0689 23.322 33.287C23.322 28.8015 26.9683 25.1522 31.4498 25.1522C31.4921 25.1522 31.5347 25.1528 31.577 25.1535L31.5968 25.1538C33.7362 25.1918 35.7419 26.0545 37.2445 27.5833C38.7487 29.1137 39.5772 31.1396 39.5772 33.287C39.5772 37.7726 35.9313 41.4219 31.4498 41.4219Z"/></g><defs><clipPath id="aclip0_1081_519"><path fill="#fff" d="M0 0H42.195V44H0z"/></clipPath></defs></symbol><symbol viewBox="0 0 53 53" fill="none" id="svg-auction"><g clip-path="url(#bclip0_1081_492)" fill="#fff"><path d="M12.1915 18.0474C11.7878 17.6437 11.1315 17.6437 10.7279 18.0474 10.3231 18.4522 10.3231 19.1074 10.7279 19.5111 11.1316 19.9159 11.7879 19.9159 12.1915 19.5111 12.5961 19.1074 12.5961 18.4522 12.1915 18.0474zM26.2101 46.3452C26.6665 45.727 26.9131 44.9822 26.9131 44.1991 26.9131 42.2015 25.2879 40.5762 23.2902 40.5762H5.69315C4.72497 40.5762 3.81517 40.953 3.13124 41.6371 2.44701 42.3211 2.07021 43.2309 2.07021 44.1991 2.07021 45.0013 2.33272 45.7431 2.77567 46.344 1.12739 47.2106 0 48.9393 0 50.9273V51.9625C0 52.5342.463543 52.9976 1.03516 52.9976H27.9482C28.5198 52.9976 28.9833 52.5342 28.9833 51.9625V50.9273C28.9833 48.9402 27.8571 47.2122 26.2101 46.3452zM4.59506 43.1008C4.88811 42.8077 5.27816 42.6463 5.69315 42.6463H23.2902C24.1464 42.6463 24.8428 43.3428 24.8428 44.1989 24.8428 44.614 24.6813 45.0039 24.3882 45.2971 24.0951 45.5903 23.7051 45.7516 23.2901 45.7516H5.69315C4.83697 45.7516 4.14052 45.0551 4.14052 44.199 4.14052 43.784 4.3019 43.394 4.59506 43.1008zM2.07021 50.9273C2.07021 49.2151 3.46332 47.822 5.17557 47.822H5.69315 23.2902 23.8078C25.52 47.822 26.9131 49.2151 26.9131 50.9273H2.07021z"/><path d="M52.0398 43.4893C51.6882 42.9445 51.2688 42.4627 50.7929 42.0574L45.9562 37.8388C45.9185 37.7821 45.8748 37.7282 45.8248 37.6782C45.7407 37.5943 45.6455 37.5288 45.5443 37.4797L42.6192 34.9286L29.0804 23.1184C29.6346 22.539 29.9398 21.7813 29.9398 20.9757C29.9398 20.1457 29.6167 19.3657 29.0295 18.7786C28.7734 18.5228 28.4823 18.3216 28.1712 18.1743L29.4238 16.9218C29.7739 17.0149 30.1336 17.0625 30.4936 17.0625C31.5537 17.0624 32.6139 16.6589 33.4209 15.8519C34.2033 15.0696 34.6341 14.0298 34.6341 12.9239C34.6341 11.8181 34.2033 10.7783 33.421 9.99599L24.6379 1.2131C23.8557 0.430832 22.8158 0 21.7096 0C20.6039 0 19.5643 0.430832 18.7822 1.2131C17.7011 2.29422 17.3452 3.82925 17.7122 5.21036L5.21531 17.7072C4.86998 17.6154 4.51068 17.5669 4.14362 17.5669C3.03724 17.5669 1.99784 17.9974 1.21619 18.779C-0.398236 20.3934 -0.398236 23.0203 1.21619 24.6349L9.99918 33.4179C10.8065 34.2252 11.8668 34.6288 12.9271 34.6288C13.9875 34.6288 15.0478 34.2252 15.8552 33.4179C16.9363 32.3367 17.2922 30.8018 16.9251 29.4207L18.1751 28.1706C18.3253 28.4843 18.5291 28.7737 18.7823 29.0268C19.3688 29.6133 20.1486 29.9364 20.9784 29.9364C21.7832 29.9364 22.5405 29.6318 23.1207 29.0782L37.5411 45.6462C37.5808 45.7084 37.6272 45.7675 37.6814 45.8217C37.7 45.8402 37.7196 45.8571 37.7392 45.8739L42.0362 50.811C42.1431 50.937 42.2572 51.0611 42.3758 51.1796C43.5559 52.3593 45.1148 52.9996 46.7514 52.9996C47.0399 52.9996 47.3311 52.9797 47.6227 52.9393C49.5718 52.6696 51.2563 51.5036 52.244 49.7399C53.3261 47.8069 53.2455 45.3529 52.0398 43.4893ZM20.2462 2.67702C20.6374 2.28583 21.1572 2.07031 21.7097 2.07031C22.2629 2.07031 22.7831 2.28583 23.1741 2.67702L31.9572 11.46C32.3484 11.8512 32.5638 12.3712 32.5638 12.924C32.5638 13.4769 32.3484 13.9969 31.9571 14.388C31.1502 15.1952 29.837 15.1952 29.0301 14.388L20.2467 5.60465C20.2465 5.60444 20.2464 5.60434 20.2462 5.60413C19.4391 4.79712 19.4391 3.48403 20.2462 2.67702ZM14.3912 31.954C13.584 32.7612 12.2703 32.7613 11.4631 31.954L2.68011 23.171C1.87279 22.3637 1.87279 21.0503 2.68011 20.2429C3.07057 19.8523 3.59043 19.6372 4.14362 19.6372C4.6967 19.6372 5.21624 19.8522 5.6066 20.2425L14.3911 29.027C15.1984 29.8339 15.1984 31.1471 14.3912 31.954ZM18.7495 24.6686L15.8551 27.5631L7.07114 18.7792L18.7822 7.06794L27.566 15.8519L24.6663 18.7516C24.6569 18.7605 24.6477 18.7692 24.6377 18.7791L18.7852 24.6318C18.7731 24.6437 18.7614 24.6561 18.7495 24.6686ZM22.4456 26.828C22.4435 26.8301 22.4416 26.8321 22.4395 26.8341L21.7105 27.5631C21.515 27.7585 21.2551 27.8662 20.9783 27.8662C20.7016 27.8662 20.4415 27.7585 20.2461 27.563C20.0503 27.3674 19.9426 27.1071 19.9426 26.8302C19.9426 26.5592 20.046 26.3043 20.2337 26.1119L26.1135 20.2321C26.5164 19.8402 27.168 19.8451 27.5662 20.2429C27.7618 20.4385 27.8696 20.6988 27.8696 20.9757C27.8696 21.2524 27.7622 21.5119 27.5661 21.7074L26.8414 22.4321C26.8364 22.437 26.8314 22.442 26.8266 22.4469L22.4456 26.828ZM24.5892 27.6122L27.6145 24.5868L40.4238 35.7598L35.7496 40.434L24.5892 27.6122ZM37.112 41.9994L41.9875 37.1238L43.5513 38.4878L38.4744 43.5649L37.112 41.9994ZM50.4378 48.7285C49.7697 49.9213 48.6402 50.7086 47.3389 50.8887C46.0406 51.0684 44.765 50.6408 43.8394 49.7156C43.7598 49.6361 43.6836 49.5531 43.6126 49.4691C43.6093 49.4651 43.6059 49.4612 43.6025 49.4574L39.8366 45.1302L45.115 39.8518L49.4368 43.6215C49.44 43.6244 49.4433 43.6272 49.4467 43.6301C49.7702 43.9051 50.0572 44.2354 50.3008 44.6129C51.0836 45.8224 51.1385 47.4766 50.4378 48.7285Z"/><path d="M19.5116 10.7275C19.1073 10.3233 18.452 10.3233 18.0477 10.7275L13.6557 15.1194C13.2515 15.5237 13.2515 16.1791 13.6557 16.5833C13.8579 16.7854 14.1228 16.8865 14.3877 16.8865C14.6526 16.8865 14.9175 16.7853 15.1196 16.5833L19.5116 12.1913C19.9158 11.7872 19.9158 11.1318 19.5116 10.7275Z"/></g><defs><clipPath id="bclip0_1081_492"><path fill="#fff" d="M0 0H53V53H0z"/></clipPath></defs></symbol><symbol viewBox="0 0 51 43" fill="none" id="svg-balance"><path d="M27.6609 38.3295H23.3393C23.1468 38.3295 22.9621 38.2538 22.8259 38.1191 22.6898 37.9843 22.6133 37.8015 22.6133 37.6109V2.90171C22.6133 2.14392 22.9174 1.41716 23.4588.881311 24.0002.345467 24.7345.0444336 25.5001.0444336 26.2657.0444336 27 .345467 27.5414.881311 28.0828 1.41716 28.3869 2.14392 28.3869 2.90171V37.6116C28.3867 37.8021 28.3101 37.9847 28.174 38.1193 28.0379 38.2539 27.8533 38.3295 27.6609 38.3295zM24.0654 36.8923H26.9348V2.90171C26.9348 2.5251 26.7836 2.16392 26.5146 1.89761 26.2455 1.63131 25.8806 1.4817 25.5001 1.4817 25.1196 1.4817 24.7547 1.63131 24.4856 1.89761 24.2166 2.16392 24.0654 2.5251 24.0654 2.90171V36.8923zM8.00214 9.6787H5.50957C4.91819 9.6682 4.35462 9.42831 3.94015 9.01065 3.52568 8.593 3.29346 8.03098 3.29346 7.44555 3.29346 6.86013 3.52568 6.2981 3.94015 5.88045 4.35462 5.4628 4.91819 5.2229 5.50957 5.2124H7.64855C7.84111 5.2124 8.02578 5.28812 8.16195 5.42288 8.29811 5.55765 8.37461 5.74044 8.37461 5.93103 8.37461 6.12163 8.29811 6.30441 8.16195 6.43918 8.02578 6.57395 7.84111 6.64967 7.64855 6.64967H5.50957C5.30049 6.65588 5.10208 6.74246 4.95641 6.89104 4.81074 7.03962 4.72927 7.23851 4.72927 7.44555 4.72927 7.65259 4.81074 7.85148 4.95641 8.00006 5.10208 8.14864 5.30049 8.23522 5.50957 8.24144H8.00214C8.1947 8.24144 8.37938 8.31715 8.51554 8.45192 8.6517 8.58669 8.7282 8.76947 8.7282 8.96007 8.7282 9.15066 8.6517 9.33345 8.51554 9.46822 8.37938 9.60299 8.1947 9.6787 8.00214 9.6787z" fill="#295C7A"/><path d="M23.3394 9.6787H12.394C12.2015 9.6787 12.0168 9.60299 11.8806 9.46822 11.7445 9.33345 11.668 9.15066 11.668 8.96007 11.668 8.76947 11.7445 8.58669 11.8806 8.45192 12.0168 8.31715 12.2015 8.24144 12.394 8.24144H22.6133V6.64967H12.7469C12.5543 6.64967 12.3697 6.57395 12.2335 6.43918 12.0973 6.30441 12.0208 6.12163 12.0208 5.93103 12.0208 5.74044 12.0973 5.55765 12.2335 5.42288 12.3697 5.28812 12.5543 5.2124 12.7469 5.2124H23.3394C23.5319 5.2124 23.7166 5.28812 23.8528 5.42288 23.9889 5.55765 24.0654 5.74044 24.0654 5.93103V8.96007C24.0654 9.15066 23.9889 9.33345 23.8528 9.46822 23.7166 9.60299 23.5319 9.6787 23.3394 9.6787zM38.4477 9.6787H27.6606C27.4681 9.6787 27.2834 9.60299 27.1472 9.46822 27.0111 9.33345 26.9346 9.15066 26.9346 8.96007V5.93103C26.9346 5.74044 27.0111 5.55765 27.1472 5.42288 27.2834 5.28812 27.4681 5.2124 27.6606 5.2124H38.0948C38.2874 5.2124 38.4721 5.28812 38.6082 5.42288 38.7444 5.55765 38.8209 5.74044 38.8209 5.93103 38.8209 6.12163 38.7444 6.30441 38.6082 6.43918 38.4721 6.57395 38.2874 6.64967 38.0948 6.64967H28.3867V8.24144H38.4477C38.6403 8.24144 38.8249 8.31715 38.9611 8.45192 39.0973 8.58669 39.1738 8.76947 39.1738 8.96007 39.1738 9.15066 39.0973 9.33345 38.9611 9.46822 38.8249 9.60299 38.6403 9.6787 38.4477 9.6787zM45.4833 9.6787H42.998C42.8055 9.6787 42.6208 9.60299 42.4846 9.46822 42.3485 9.33345 42.272 9.15066 42.272 8.96007 42.272 8.76947 42.3485 8.58669 42.4846 8.45192 42.6208 8.31715 42.8055 8.24144 42.998 8.24144H45.4833C45.6924 8.23522 45.8908 8.14864 46.0365 8.00006 46.1822 7.85148 46.2636 7.65259 46.2636 7.44555 46.2636 7.23851 46.1822 7.03962 46.0365 6.89104 45.8908 6.74246 45.6924 6.65588 45.4833 6.64967H43.356C43.1634 6.64967 42.9787 6.57395 42.8426 6.43918 42.7064 6.30441 42.6299 6.12163 42.6299 5.93103 42.6299 5.74044 42.7064 5.55765 42.8426 5.42288 42.9787 5.28812 43.1634 5.2124 43.356 5.2124H45.4833C46.0747 5.2229 46.6383 5.4628 47.0528 5.88045 47.4672 6.2981 47.6995 6.86013 47.6995 7.44555 47.6995 8.03098 47.4672 8.593 47.0528 9.01065 46.6383 9.42831 46.0747 9.6682 45.4833 9.6787zM34.6954 42.9546H16.3043C16.1941 42.9546 16.0853 42.9297 15.9863 42.8818 15.8872 42.834 15.8005 42.7645 15.7326 42.6785 15.6648 42.5926 15.6175 42.4925 15.5946 42.3858 15.5716 42.2791 15.5735 42.1687 15.6 42.0628 15.8994 40.6416 16.6703 39.3603 17.7902 38.4227 18.9101 37.4852 20.3146 36.9452 21.7802 36.8887H29.2194C30.6851 36.9452 32.0896 37.4852 33.2095 38.4227 34.3293 39.3603 35.1003 40.6416 35.3997 42.0628 35.4262 42.1687 35.4281 42.2791 35.4051 42.3858 35.3821 42.4925 35.3349 42.5926 35.267 42.6785 35.1992 42.7645 35.1124 42.834 35.0134 42.8818 34.9143 42.9297 34.8056 42.9546 34.6954 42.9546zM17.3084 41.5174H33.6912C33.3456 40.6094 32.7369 39.8225 31.9415 39.2554 31.146 38.6883 30.1991 38.3663 29.2194 38.3295H21.7802C20.8006 38.3663 19.8537 38.6883 19.0582 39.2554 18.2627 39.8225 17.654 40.6094 17.3084 41.5174z" fill="#295C7A"/><path d="M36.6618 42.9548H14.3384C14.1458 42.9548 13.9611 42.8791 13.825 42.7444 13.6888 42.6096 13.6123 42.4268 13.6123 42.2362 13.6123 42.0456 13.6888 41.8628 13.825 41.7281 13.9611 41.5933 14.1458 41.5176 14.3384 41.5176H36.6618C36.8543 41.5176 37.039 41.5933 37.1752 41.7281 37.3113 41.8628 37.3878 42.0456 37.3878 42.2362 37.3878 42.4268 37.3113 42.6096 37.1752 42.7444 37.039 42.8791 36.8543 42.9548 36.6618 42.9548zM50.186 27.6973H31.4238C31.3023 27.6974 31.1827 27.6673 31.076 27.6098 30.9692 27.5522 30.8788 27.469 30.813 27.3679 30.7471 27.2668 30.708 27.1509 30.6992 27.0309 30.6904 26.911 30.7121 26.7907 30.7624 26.6812L38.7345 9.30901C38.7738 9.22283 38.8299 9.14516 38.8995 9.08045 38.9691 9.01574 39.051 8.96527 39.1404 8.93193 39.2297 8.89858 39.3249 8.88302 39.4203 8.88613 39.5158 8.88924 39.6097 8.91097 39.6967 8.95006 39.7836 8.98915 39.862 9.04484 39.9271 9.11394 39.9923 9.18304 40.0431 9.26419 40.0765 9.35274 40.11 9.4413 40.1254 9.53551 40.122 9.62999 40.1186 9.72447 40.0964 9.81735 40.0567 9.90332L32.5507 26.2601H49.0562L41.5567 9.90332C41.5174 9.81735 41.4955 9.72454 41.4923 9.63019 41.4892 9.53585 41.5049 9.44182 41.5384 9.35347 41.572 9.26511 41.6228 9.18417 41.688 9.11526 41.7532 9.04635 41.8315 8.99083 41.9183 8.95185 42.0052 8.91288 42.0989 8.89122 42.1943 8.88811 42.2896 8.885 42.3846 8.9005 42.4739 8.93374 42.5631 8.96697 42.6449 9.01728 42.7145 9.08179 42.7841 9.1463 42.8402 9.22376 42.8796 9.30973L50.8438 26.6819C50.8938 26.7911 50.9154 26.911 50.9067 27.0306 50.898 27.1501 50.8591 27.2657 50.7937 27.3666 50.7283 27.4675 50.6385 27.5507 50.5323 27.6085 50.4262 27.6662 50.3071 27.6968 50.186 27.6973z" fill="#295C7A"/><path d="M40.8793 36.8635H40.7282C34.9147 36.8635 30.6948 32.7069 30.6948 26.9794 30.6948 26.7888 30.7713 26.606 30.9075 26.4712 31.0436 26.3365 31.2283 26.2607 31.4209 26.2607H50.1859C50.3784 26.2607 50.5631 26.3365 50.6993 26.4712 50.8354 26.606 50.9119 26.7888 50.9119 26.9794 50.9119 32.7105 46.6921 36.8635 40.8793 36.8635zM32.1724 27.698C32.4962 32.2843 35.9224 35.4262 40.7282 35.4262H40.8793C45.6843 35.4262 49.1113 32.2843 49.4344 27.698H32.1724zM40.8039 10.7033C40.0979 10.7034 39.4077 10.4963 38.8206 10.1082 38.2336 9.72006 37.776 9.16833 37.5057 8.52276 37.2355 7.8772 37.1647 7.16681 37.3024 6.48145 37.4401 5.79609 37.7801 5.16654 38.2793 4.67243 38.7785 4.17831 39.4146 3.84183 40.107 3.70554 40.7995 3.56925 41.5172 3.63927 42.1694 3.90675 42.8217 4.17423 43.3791 4.62715 43.7712 5.20822 44.1634 5.7893 44.3726 6.47243 44.3725 7.17121 44.3713 8.10762 43.995 9.00536 43.326 9.6675 42.657 10.3296 41.75 10.7021 40.8039 10.7033zM40.8039 5.07568C40.3851 5.07554 39.9757 5.19832 39.6275 5.42849 39.2792 5.65866 39.0077 5.98589 38.8474 6.36879 38.687 6.75168 38.645 7.17304 38.7266 7.57959 38.8082 7.98613 39.0098 8.35958 39.3059 8.65272 39.6019 8.94585 39.9792 9.1455 40.3899 9.22642 40.8006 9.30733 41.2263 9.26588 41.6132 9.10729 42.0001 8.94871 42.3308 8.68012 42.5635 8.3355 42.7962 7.99087 42.9204 7.5857 42.9204 7.17121 42.9198 6.61574 42.6966 6.08317 42.2999 5.69033 41.9031 5.29748 41.3651 5.07644 40.8039 5.07568zM19.5751 27.6974H.813749C.692267 27.6974.572735 27.6671.466102 27.6095.359469 27.5519.269145 27.4688.203401 27.3677.137658 27.2666.0985973 27.1507.089798 27.0308.0809986 26.9109.102741 26.7907.153035 26.6812L8.12662 9.30905C8.20624 9.13542 8.35229 9.00021 8.53264 8.93317 8.71299 8.86612 8.91286 8.87273 9.08828 8.95154 9.26371 9.03035 9.40032 9.1749 9.46806 9.3534 9.5358 9.53191 9.52912 9.72973 9.4495 9.90336L1.9435 26.2601H18.449L10.9495 9.90336C10.9078 9.81712 10.8839 9.7235 10.8793 9.628 10.8746 9.5325 10.8892 9.43704 10.9222 9.3472 10.9553 9.25736 11.0062 9.17495 11.0718 9.10481 11.1374 9.03466 11.2166 8.97819 11.3045 8.93869 11.3925 8.8992 11.4876 8.87747 11.5841 8.87479 11.6807 8.87212 11.7768 8.88854 11.8669 8.9231 11.957 8.95765 12.0392 9.00965 12.1087 9.07605 12.1782 9.14245 12.2336 9.22191 12.2717 9.30977L20.2366 26.682C20.2867 26.7914 20.3083 26.9116 20.2994 27.0315 20.2905 27.1514 20.2514 27.2671 20.1855 27.3682 20.1197 27.4692 20.0294 27.5523 19.9227 27.6098 19.8161 27.6673 19.6966 27.6974 19.5751 27.6974z" fill="#295C7A"/><path d="M10.2716 36.8635H10.1206C4.30775 36.8635.0878906 32.7105.0878906 26.9794.0878906 26.7888.164386 26.606.300548 26.4712.436711 26.3365.621387 26.2607.81395 26.2607H19.579C19.7715 26.2607 19.9562 26.3365 20.0924 26.4712 20.2285 26.606 20.305 26.7888 20.305 26.9794 20.305 32.7105 16.0852 36.8635 10.2716 36.8635zM1.56542 27.698C1.88852 32.2843 5.31552 35.4262 10.1206 35.4262H10.2716C15.0774 35.4262 18.5037 32.2843 18.8275 27.698H1.56542zM10.1963 10.7033C9.49029 10.7033 8.80017 10.4961 8.21319 10.1078 7.6262 9.71963 7.16871 9.16784 6.89858 8.52226 6.62845 7.87669 6.55781 7.16633 6.69559 6.48101 6.83337 5.7957 7.17339 5.16621 7.67264 4.67217 8.17189 4.17813 8.80794 3.84172 9.50037 3.70549 10.1928 3.56926 10.9105 3.63932 11.5627 3.90682 12.2149 4.17432 12.7723 4.62724 13.1644 5.2083 13.5565 5.78936 13.7657 6.47246 13.7656 7.17121 13.7644 8.10775 13.388 9.00559 12.7188 9.66775 12.0497 10.3299 11.1425 10.7023 10.1963 10.7033zM10.1963 5.07568C9.77752 5.07568 9.36819 5.19858 9.02002 5.42884 8.67185 5.6591 8.40048 5.98638 8.24023 6.36928 8.07999 6.75219 8.03806 7.17353 8.11975 7.58003 8.20145 7.98652 8.40309 8.35991 8.69918 8.65297 8.99528 8.94604 9.37253 9.14562 9.78322 9.22647 10.1939 9.30733 10.6196 9.26583 11.0065 9.10723 11.3933 8.94862 11.724 8.68003 11.9566 8.33542 12.1893 7.99081 12.3135 7.58567 12.3135 7.17121 12.3129 6.61561 12.0896 6.08294 11.6927 5.69008 11.2958 5.29721 10.7576 5.07625 10.1963 5.07568z" fill="#295C7A"/></symbol><symbol viewBox="0 0 24 31" fill="none" id="svg-bx-map"><g clip-path="url(#dclip0_964_12858)" fill="#8EC2F2"><path d="M11.9999 18.2499C15.3089 18.2499 17.9999 15.5589 17.9999 12.2499C17.9999 8.94097 15.3089 6.25 11.9999 6.25C8.69097 6.25 6 8.94097 6 12.2499C6 15.5589 8.69097 18.2499 11.9999 18.2499ZM11.9999 9.24997C13.6544 9.24997 14.9999 10.5955 14.9999 12.2499C14.9999 13.9044 13.6544 15.2499 11.9999 15.2499C10.3455 15.2499 8.99997 13.9044 8.99997 12.2499C8.99997 10.5955 10.3455 9.24997 11.9999 9.24997Z"/><path d="M11.13 29.9707C11.3839 30.152 11.688 30.2494 12 30.2494C12.312 30.2494 12.6161 30.152 12.87 29.9707C13.326 29.6482 24.0434 21.9098 23.9999 12.2499C23.9999 5.63344 18.6164 0.25 12 0.25C5.38357 0.25 0.000132055 5.63344 0.000132055 12.2424C-0.0433675 21.9098 10.674 29.6482 11.13 29.9707ZM12 3.24997C16.9634 3.24997 20.9999 7.28642 20.9999 12.2574C21.0314 18.9143 14.418 24.8917 12 26.8522C9.58353 24.8902 2.9686 18.9113 3.0001 12.2499C3.0001 7.28642 7.03655 3.24997 12 3.24997Z"/></g><defs><clipPath id="dclip0_964_12858"><path fill="#fff" transform="translate(0 .25)" d="M0 0H24V30H0z"/></clipPath></defs></symbol><symbol viewBox="0 0 24 25" fill="none" id="svg-bx-phone"><g clip-path="url(#eclip0_964_12854)"><path d="M18.8483 12.9767C18.737 12.8652 18.6047 12.7767 18.4592 12.7163C18.3136 12.656 18.1575 12.6249 17.9999 12.6249C17.8423 12.6249 17.6863 12.656 17.5407 12.7163C17.3951 12.7767 17.2629 12.8652 17.1515 12.9767L15.2388 14.8895C14.352 14.6255 12.6972 14.0255 11.6484 12.9767C10.5996 11.9279 9.99962 10.2731 9.73562 9.38635L11.6484 7.47357C11.7599 7.36223 11.8484 7.22998 11.9088 7.08441C11.9692 6.93883 12.0002 6.78278 12.0002 6.62518C12.0002 6.46758 11.9692 6.31153 11.9088 6.16595C11.8484 6.02038 11.7599 5.88813 11.6484 5.77679L6.84845 0.976838C6.73711 0.865304 6.60486 0.776819 6.45929 0.716447C6.31371 0.656075 6.15766 0.625 6.00006 0.625C5.84246 0.625 5.68641 0.656075 5.54083 0.716447C5.39526 0.776819 5.26301 0.865304 5.15167 0.976838L1.8973 4.23121C1.44131 4.6872 1.18451 5.31359 1.19411 5.95319C1.22171 7.66197 1.6741 13.5971 6.35166 18.2747C11.0292 22.9522 16.9644 23.4034 18.6743 23.4322H18.7079C19.3415 23.4322 19.9403 23.1826 20.3939 22.729L23.6483 19.4747C23.7598 19.3633 23.8483 19.2311 23.9087 19.0855C23.969 18.9399 24.0001 18.7839 24.0001 18.6263C24.0001 18.4687 23.969 18.3126 23.9087 18.167C23.8483 18.0215 23.7598 17.8892 23.6483 17.7779L18.8483 12.9767ZM18.6959 21.031C17.1983 21.0058 12.0744 20.6038 8.04844 16.5767C4.00928 12.5375 3.61808 7.39557 3.59408 5.92799L6.00006 3.52201L9.10323 6.62518L7.55164 8.17677C7.4106 8.3177 7.3069 8.49157 7.24991 8.68264C7.19292 8.87372 7.18445 9.07598 7.22525 9.27115C7.25405 9.40915 7.95844 12.6815 9.95042 14.6735C11.9424 16.6655 15.2148 17.3699 15.3528 17.3987C15.5478 17.4406 15.7503 17.4328 15.9415 17.376C16.1328 17.3192 16.3067 17.2151 16.4472 17.0735L17.9999 15.5219L21.1031 18.6251L18.6959 21.031Z" fill="#8EC2F2"/></g><defs><clipPath id="eclip0_964_12854"><path fill="#fff" transform="translate(0 .625)" d="M0 0H24V24H0z"/></clipPath></defs></symbol><symbol viewBox="0 0 24 27" fill="none" id="svg-carbon_send-alt"><g clip-path="url(#fclip0_964_12863)"><path d="M23.71 2.21621C23.575 2.07651 23.4045 1.97979 23.2185 1.93742C23.0325 1.89504 22.8388 1.90878 22.66 1.97701L0.660001 10.297C0.470269 10.3719 0.306921 10.505 0.191652 10.6786C0.0763829 10.8523 0.0146484 11.0584 0.0146484 11.2694C0.0146484 11.4805 0.0763829 11.6865 0.191652 11.8602C0.306921 12.0339 0.470269 12.167 0.660001 12.2418L10.26 16.2354L14.1 26.2194C14.1721 26.4081 14.2958 26.5706 14.4557 26.6871C14.6157 26.8035 14.8049 26.8687 15 26.8746C15.2021 26.8703 15.3982 26.8024 15.5624 26.6799C15.7266 26.5573 15.8513 26.3859 15.92 26.1882L23.92 3.30821C23.9881 3.12421 24.0046 2.92386 23.9674 2.73052C23.9302 2.53718 23.8409 2.35881 23.71 2.21621ZM15 22.9226L12.21 15.6426L17 10.661L15.59 9.19461L10.76 14.2178L3.8 11.2746L21.33 4.69141L15 22.9226Z" fill="#8EC2F2"/></g><defs><clipPath id="fclip0_964_12863"><path fill="#fff" transform="translate(0 .875)" d="M0 0H24V26H0z"/></clipPath></defs></symbol><symbol viewBox="0 0 16 15" fill="none" id="svg-cart"><g clip-path="url(#gclip0_964_12577)"><g clip-path="url(#gclip1_964_12577)" fill="#737373"><path d="M5.33327 14.9336C5.92237 14.9336 6.39993 14.4561 6.39993 13.867 6.39993 13.2779 5.92237 12.8003 5.33327 12.8003 4.74416 12.8003 4.2666 13.2779 4.2666 13.867 4.2666 14.4561 4.74416 14.9336 5.33327 14.9336zM12.8001 14.9336C13.3892 14.9336 13.8667 14.4561 13.8667 13.867 13.8667 13.2779 13.3892 12.8003 12.8001 12.8003 12.211 12.8003 11.7334 13.2779 11.7334 13.867 11.7334 14.4561 12.211 14.9336 12.8001 14.9336zM14.9333 2.66678H3.104L2.66667.426775C2.64173.304495 2.57471.19483 2.47726.11687 2.37981.0389102 2.25811-.00240773 2.13333.000108501H0V1.06678H1.696L3.73333 11.3068C3.75827 11.4291 3.82529 11.5387 3.92274 11.6167 4.02019 11.6946 4.1419 11.736 4.26667 11.7334H13.8667V10.6668H4.704L4.26667 8.53344H13.8667C13.99 8.53646 14.1105 8.49665 14.2077 8.4208 14.305 8.34496 14.3729 8.23775 14.4 8.11744L15.4667 3.31744C15.4845 3.23831 15.4841 3.15614 15.4655 3.07719 15.4468 2.99824 15.4103 2.9246 15.3589 2.86185 15.3075 2.79911 15.2424 2.74893 15.1687 2.71512 15.0949 2.68132 15.0144 2.66478 14.9333 2.66678zM13.44 7.46678H4.064L3.31733 3.73344H14.2667L13.44 7.46678z"/></g></g><defs><clipPath id="gclip0_964_12577"><path fill="#fff" d="M0 0H16V14.933H0z"/></clipPath><clipPath id="gclip1_964_12577"><path fill="#fff" d="M0 0H16V14.933H0z"/></clipPath></defs></symbol><symbol viewBox="0 0 73 72" fill="none" id="svg-mark"><path d="M29.5 42C37.4967 42 44 35.721 44 28C44 20.279 37.4967 14 29.5 14C21.5032 14 15 20.279 15 28C15 35.721 21.5032 42 29.5 42ZM29.5 21C33.4984 21 36.75 24.1395 36.75 28C36.75 31.8605 33.4984 35 29.5 35C25.5016 35 22.25 31.8605 22.25 28C22.25 24.1395 25.5016 21 29.5 21Z" fill="#D0A144"/><path d="M27.4338 70.3403C28.0367 70.7693 28.7591 71 29.5 71C30.2409 71 30.9633 70.7693 31.5662 70.3403C32.6492 69.577 58.103 51.2624 57.9997 28.4002C57.9997 12.7411 45.214 0 29.5 0C13.786 0 1.00031 12.7411 1.00031 28.3825C0.897002 51.2624 26.3508 69.577 27.4338 70.3403ZM29.5 7.10006C41.2882 7.10006 50.8748 16.6532 50.8748 28.418C50.9496 44.173 35.2427 58.3199 29.5 62.9598C23.7609 58.3163 8.05042 44.1659 8.12524 28.4002C8.12524 16.6532 17.7118 7.10006 29.5 7.10006Z" fill="#D0A144"/></symbol><symbol viewBox="0 0 32 32" fill="none" id="svg-people"><path fill-rule="evenodd" clip-rule="evenodd" d="M18.2367 8.77151C17.7729 9.09308 17.2497 9.31905 16.6976 9.43623C16.1456 9.55342 15.5757 9.55949 15.0212 9.45407C14.4668 9.34865 13.9389 9.13385 13.4684 8.82223C12.9979 8.5106 12.5941 8.10838 12.2807 7.63904C11.9673 7.1697 11.7505 6.64263 11.643 6.08861C11.5354 5.53458 11.5393 4.96468 11.6544 4.41218C11.7695 3.85967 11.9935 3.33562 12.3133 2.8706C12.6331 2.40559 13.0423 2.00893 13.517 1.70376C14.4544 1.08466 15.5986 0.861813 16.6998 1.08393C17.8009 1.30605 18.7693 1.95506 19.3933 2.88911C20.0173 3.82315 20.2462 4.96625 20.0298 6.06853C19.8135 7.17081 19.1696 8.14262 18.2388 8.77151H18.2367ZM17.0573 3.47176C16.8259 3.30528 16.5633 3.18706 16.2853 3.12415C16.0072 3.06124 15.7193 3.05493 15.4388 3.10558C15.1583 3.15622 14.8908 3.26281 14.6523 3.41897C14.4138 3.57514 14.2091 3.7777 14.0505 4.0146C13.8919 4.25149 13.7826 4.51788 13.7291 4.79789C13.6756 5.07791 13.679 5.36583 13.739 5.64451C13.7991 5.92319 13.9146 6.18694 14.0788 6.42004C14.2429 6.65315 14.4522 6.85086 14.6943 7.00139C15.162 7.28552 15.7214 7.37824 16.2558 7.26023C16.7902 7.14222 17.2585 6.82258 17.563 6.36789C17.8676 5.9132 17.985 5.35852 17.8908 4.81941C17.7966 4.2803 17.498 3.79833 17.0573 3.47389V3.47176ZM22.6036 3.53551C23.2164 3.12326 23.9539 2.93762 24.6889 3.01054C25.4239 3.08346 26.1105 3.41038 26.6304 3.93501C27.0009 4.30848 27.2741 4.76715 27.426 5.27079C27.578 5.77443 27.604 6.30766 27.5018 6.82371C27.3997 7.33975 27.1724 7.82284 26.8401 8.23061C26.5077 8.63838 26.0804 8.95837 25.5956 9.16251C25.0133 9.40598 24.3715 9.47011 23.7526 9.34669C23.1336 9.22328 22.5656 8.91794 22.1212 8.46976C21.7872 8.13405 21.5315 7.72865 21.3725 7.28259C21.2135 6.83653 21.155 6.36083 21.2013 5.88954C21.2476 5.41825 21.3975 4.96302 21.6403 4.55643C21.8831 4.14984 22.2127 3.80194 22.6057 3.53764L22.6036 3.53551ZM23.6236 6.95676C23.8231 7.15543 24.0933 7.2667 24.3749 7.2661C24.5143 7.2658 24.6523 7.23805 24.7809 7.18443C24.9096 7.13081 25.0265 7.05236 25.1249 6.95357C25.2232 6.85479 25.3012 6.73759 25.3543 6.60868C25.4073 6.47977 25.4345 6.34167 25.4342 6.20226C25.4339 6.06285 25.4062 5.92486 25.3525 5.79618C25.2989 5.66749 25.2205 5.55063 25.1217 5.45226C24.9238 5.25328 24.6564 5.13899 24.3758 5.13351C24.2357 5.13323 24.0968 5.16073 23.9674 5.21442C23.8379 5.26811 23.7204 5.34694 23.6216 5.44633C23.5228 5.54573 23.4447 5.66372 23.3918 5.7935C23.3388 5.92327 23.3122 6.06224 23.3133 6.20239C23.314 6.48539 23.4253 6.7569 23.6236 6.95889V6.95676ZM5.65455 25.3975H9.5008V27.5331H5.65455C4.98123 27.5271 4.3378 27.2542 3.8653 26.7745C3.39099 26.293 3.12533 25.6441 3.1258 24.9683V21.122C2.8397 21.1124 2.5585 21.045 2.29919 20.9237C2.03988 20.8025 1.80783 20.6299 1.61705 20.4165C1.41433 20.2112 1.25524 19.967 1.14934 19.6985C1.04343 19.4301 0.992909 19.1431 1.0008 18.8546V14.2179C1.00718 13.2149 1.40455 12.2565 2.1058 11.5446C2.80493 10.8413 3.75055 10.4396 4.7408 10.4333H8.6508C8.1234 11.0614 7.72612 11.788 7.48205 12.571H4.7408C4.30951 12.5834 3.89915 12.7597 3.5933 13.064C3.29287 13.3729 3.1251 13.787 3.1258 14.2179V18.9609H5.2508V24.9661C5.24587 25.024 5.25275 25.0823 5.27101 25.1375C5.28928 25.1926 5.31855 25.2435 5.35705 25.287C5.44247 25.353 5.54664 25.3902 5.65455 25.3933V25.3975ZM21.167 11.5468C20.8193 11.1957 20.4057 10.9167 19.9498 10.726C19.494 10.5353 19.0049 10.4365 18.5108 10.4354H13.2408C12.2502 10.4433 11.3029 10.8428 10.6058 11.5468C9.90455 12.2586 9.50718 13.217 9.5008 14.22V20.9733C9.4978 21.5531 9.71853 22.1118 10.1171 22.533C10.3081 22.7462 10.5402 22.9185 10.7994 23.0397C11.0587 23.161 11.3398 23.2286 11.6258 23.2385V28.1749C11.6238 28.5118 11.6885 28.8458 11.8161 29.1576C11.9438 29.4695 12.1319 29.7529 12.3696 29.9918C12.7521 30.3488 13.2344 30.5804 13.7508 30.6548H18.0008C18.5985 30.5763 19.1461 30.2797 19.5384 29.8219C19.9306 29.3642 20.1398 28.7776 20.1258 28.1749V23.2364C20.4119 23.2268 20.6931 23.1594 20.9524 23.0381C21.2117 22.9169 21.4438 22.7443 21.6346 22.5309C21.8371 22.3259 21.9961 22.082 22.102 21.814C22.2079 21.5459 22.2585 21.2592 22.2508 20.9711V14.2179C22.2523 13.2195 21.8633 12.2601 21.167 11.5446V11.5468ZM20.1258 21.0774H18.0008V28.1749C17.9987 28.2869 17.953 28.3937 17.8733 28.4724C17.837 28.5153 17.7913 28.5492 17.7396 28.5713C17.688 28.5935 17.6319 28.6032 17.5758 28.5999H14.1546C14.0435 28.5947 13.9384 28.5483 13.8598 28.4697C13.7812 28.3911 13.7347 28.2859 13.7296 28.1749V21.0774H11.6258V14.2179C11.6258 13.7865 11.7937 13.3721 12.0933 13.064C12.3992 12.7597 12.8095 12.5834 13.2408 12.571H18.5108C18.8327 12.5767 19.146 12.6762 19.4121 12.8574C19.6782 13.0386 19.8857 13.2936 20.0089 13.591C20.0898 13.7899 20.1296 14.0032 20.1258 14.2179V21.0774ZM26.0971 27.531H22.2508V25.3954H26.0758C26.1837 25.3924 26.2879 25.3552 26.3733 25.2891C26.4161 25.2473 26.4496 25.1969 26.4715 25.1413C26.4935 25.0856 26.5035 25.0259 26.5008 24.9661V18.9609H28.6258V14.2179C28.6265 13.787 28.4587 13.3729 28.1583 13.064C27.8524 12.7597 27.4421 12.5834 27.0108 12.571H24.2696C24.0256 11.788 23.6283 11.0613 23.1008 10.4333H27.0108C28.0012 10.4423 28.9481 10.8417 29.6458 11.5446C30.347 12.2565 30.7444 13.2149 30.7508 14.2179V18.8546C30.7508 19.4348 30.5319 19.9915 30.1367 20.4123C29.7414 20.8351 29.2017 21.088 28.6258 21.1199V24.9661C28.6258 25.644 28.3602 26.2921 27.8863 26.7724C27.4138 27.2521 26.7704 27.5249 26.0971 27.531ZM7.3758 2.99576C6.74346 2.99503 6.12531 3.18314 5.60057 3.536C5.07583 3.88885 4.66842 4.39037 4.43055 4.97626C4.19049 5.56195 4.12817 6.20536 4.25136 6.82623C4.37456 7.4471 4.67781 8.01797 5.1233 8.46764C5.56863 8.91678 6.13774 9.22298 6.75793 9.34712C7.37812 9.47126 8.02124 9.4077 8.60514 9.16456C9.18903 8.92142 9.68719 8.50975 10.036 7.98212C10.3848 7.45449 10.5684 6.83486 10.5633 6.20239C10.5633 5.35239 10.2276 4.53639 9.6283 3.93501C9.33323 3.63779 8.98233 3.40181 8.59577 3.24063C8.20921 3.07944 7.79462 2.99622 7.3758 2.99576ZM7.3758 7.27126C7.23565 7.27155 7.09684 7.24405 6.96739 7.19035C6.83793 7.13666 6.72041 7.05784 6.6216 6.95844C6.5228 6.85905 6.44468 6.74105 6.39176 6.61128C6.33885 6.48151 6.31218 6.34253 6.3133 6.20239C6.31385 5.92017 6.42577 5.64959 6.62473 5.44944C6.82368 5.24928 7.0936 5.13575 7.3758 5.13351C7.65714 5.13847 7.92548 5.25287 8.12386 5.45244C8.32223 5.652 8.43503 5.92102 8.4383 6.20239C8.43775 6.4846 8.32583 6.75519 8.12688 6.95534C7.92792 7.15549 7.658 7.26902 7.3758 7.27126Z" fill="#D0A144"/></symbol><symbol viewBox="0 0 73 72" fill="none" id="svg-phone"><g clip-path="url(#jclip0_964_13887)"><path d="M56.9295 38.9947C56.578 38.6426 56.1605 38.3632 55.7009 38.1726C55.2413 37.982 54.7487 37.8839 54.2511 37.8839C53.7536 37.8839 53.2609 37.982 52.8013 38.1726C52.3417 38.3632 51.9242 38.6426 51.5727 38.9947L45.534 45.0334C42.7344 44.1999 37.5102 42.3057 34.1992 38.9947C30.8881 35.6836 28.9939 30.4594 28.1605 27.6598L34.1992 21.6211C34.5513 21.2696 34.8306 20.8521 35.0212 20.3925C35.2118 19.9329 35.3099 19.4403 35.3099 18.9427C35.3099 18.4452 35.2118 17.9525 35.0212 17.4929C34.8306 17.0333 34.5513 16.6159 34.1992 16.2643L19.0456 1.11076C18.6941 0.758646 18.2766 0.479298 17.817 0.288701C17.3574 0.0981045 16.8647 0 16.3672 0C15.8696 0 15.377 0.0981045 14.9174 0.288701C14.4578 0.479298 14.0403 0.758646 13.6888 1.11076L3.41467 11.3849C1.97508 12.8245 1.16436 14.802 1.19467 16.8212C1.2818 22.2159 2.71003 40.9533 17.4772 55.7204C32.2443 70.4876 50.9817 71.912 56.3802 72.003H56.4863C58.4865 72.003 60.377 71.215 61.809 69.783L72.0831 59.5088C72.4352 59.1573 72.7146 58.7398 72.9052 58.2802C73.0957 57.8207 73.1938 57.328 73.1938 56.8304C73.1938 56.3329 73.0957 55.8402 72.9052 55.3807C72.7146 54.9211 72.4352 54.5036 72.0831 54.1521L56.9295 38.9947ZM56.4484 64.4224C51.7205 64.3428 35.544 63.0737 22.834 50.3599C10.0822 37.6081 8.84722 21.3749 8.77146 16.7417L16.3672 9.14594L26.164 18.9427L21.2656 23.8411C20.8203 24.2861 20.4929 24.835 20.313 25.4382C20.1331 26.0414 20.1063 26.68 20.2351 27.2961C20.3261 27.7318 22.5498 38.0627 28.8386 44.3515C35.1273 50.6402 45.4583 52.864 45.8939 52.9549C46.5097 53.0874 47.1489 53.0627 47.7527 52.8833C48.3565 52.7039 48.9054 52.3755 49.3489 51.9283L54.2511 47.0299L64.0479 56.8267L56.4484 64.4224Z" fill="#D0A144"/></g><defs><clipPath id="jclip0_964_13887"><path fill="#fff" transform="translate(.5)" d="M0 0H72V72H0z"/></clipPath></defs></symbol><symbol viewBox="0 0 25 30" fill="none" id="svg-play"><path d="M0.299805 0.800049L24.2998 15.2001L0.299805 29.6001V0.800049Z" fill="#fff"/></symbol><symbol viewBox="0 0 16 16" fill="none" id="svg-search"><path fill-rule="evenodd" clip-rule="evenodd" d="M11.4601 10.3185L15.7639 14.6223C15.9151 14.7737 16.0001 14.979 16 15.193C15.9999 15.407 15.9148 15.6122 15.7635 15.7635C15.6121 15.9147 15.4068 15.9997 15.1928 15.9996C14.9788 15.9995 14.7736 15.9144 14.6223 15.7631L10.3185 11.4593C9.03194 12.4558 7.41407 12.9247 5.79403 12.7707C4.17398 12.6167 2.67346 11.8513 1.59771 10.6302C0.521957 9.40911 -0.0482098 7.82408 0.00319691 6.19754C0.0546036 4.57101 0.723722 3.02514 1.87443 1.87443C3.02514 0.723722 4.57101 0.0546036 6.19754 0.00319691C7.82408 -0.0482098 9.40911 0.521957 10.6302 1.59771C11.8513 2.67346 12.6167 4.17398 12.7707 5.79403C12.9247 7.41407 12.4558 9.03194 11.4593 10.3185H11.4601ZM6.4003 11.1993C7.67328 11.1993 8.89412 10.6936 9.79425 9.79345C10.6944 8.89332 11.2001 7.67248 11.2001 6.3995C11.2001 5.12652 10.6944 3.90568 9.79425 3.00554C8.89412 2.10541 7.67328 1.59972 6.4003 1.59972C5.12732 1.59972 3.90648 2.10541 3.00634 3.00554C2.10621 3.90568 1.60052 5.12652 1.60052 6.3995C1.60052 7.67248 2.10621 8.89332 3.00634 9.79345C3.90648 10.6936 5.12732 11.1993 6.4003 11.1993Z" fill="#737373"/></symbol><symbol viewBox="0 0 32 32" fill="none" id="svg-speed"><g clip-path="url(#mclip0_964_13622)"><path d="M29.8154 10.3646L27.8167 13.3708C28.7806 15.2933 29.2525 17.4249 29.1901 19.5746C29.1277 21.7243 28.5329 23.825 27.4592 25.6883H4.93666C3.54106 23.2672 2.96277 20.4609 3.28751 17.6853C3.61226 14.9097 4.82277 12.3126 6.73956 10.2791C8.65636 8.2456 11.1774 6.88388 13.929 6.39581C16.6806 5.90775 19.5162 6.31934 22.0154 7.56956L25.0217 5.57081C21.9609 3.60816 18.3304 2.72869 14.7109 3.07308C11.0913 3.41747 7.69176 4.96581 5.05609 7.47045C2.42042 9.97509 0.700875 13.2913 0.172515 16.8886C-0.355844 20.486 0.337506 24.1566 2.14166 27.3133C2.42524 27.8045 2.83243 28.2129 3.32276 28.498C3.81309 28.7831 4.36949 28.9349 4.93666 28.9383H27.4429C28.0156 28.9406 28.5787 28.7915 29.0752 28.5061C29.5718 28.2208 29.9841 27.8093 30.2704 27.3133C31.7676 24.7197 32.519 21.7627 32.4416 18.769C32.3642 15.7752 31.461 12.8611 29.8317 10.3483L29.8154 10.3646ZM13.9067 21.4796C14.2085 21.7817 14.5669 22.0214 14.9615 22.185C15.356 22.3486 15.7789 22.4327 16.206 22.4327C16.6331 22.4327 17.056 22.3486 17.4506 22.185C17.8451 22.0214 18.2036 21.7817 18.5054 21.4796L27.7029 7.68331L13.9067 16.8808C13.6045 17.1826 13.3648 17.5411 13.2012 17.9356C13.0377 18.3302 12.9535 18.7531 12.9535 19.1802C12.9535 19.6073 13.0377 20.0302 13.2012 20.4247C13.3648 20.8193 13.6045 21.1777 13.9067 21.4796Z" fill="#D0A144"/></g><defs><clipPath id="mclip0_964_13622"><path fill="#fff" d="M0 0H32V32H0z"/></clipPath></defs></symbol><symbol viewBox="0 0 73 72" fill="none" id="svg-tg"><g clip-path="url(#nclip0_964_13908)"><path d="M70.3484 2.16199C69.9592 1.75903 69.4674 1.48003 68.9308 1.35781C68.3943 1.23558 67.8354 1.27521 67.3198 1.47202L3.8615 25.4708C3.31422 25.6867 2.84305 26.0706 2.51056 26.5716C2.17807 27.0726 2 27.6669 2 28.2756C2 28.8844 2.17807 29.4787 2.51056 29.9797C2.84305 30.4807 3.31422 30.8646 3.8615 31.0805L31.5524 42.5999L42.6287 71.3984C42.8368 71.9426 43.1935 72.4115 43.6549 72.7473C44.1162 73.0832 44.6619 73.2712 45.2248 73.2883C45.8077 73.2759 46.3733 73.08 46.847 72.7266C47.3207 72.3732 47.6804 71.8787 47.8785 71.3084L70.9542 5.31183C71.1507 4.78108 71.1981 4.20317 71.0909 3.64548C70.9836 3.08779 70.7261 2.5733 70.3484 2.16199ZM45.2248 61.8889L37.1771 40.89L50.9937 26.5207L46.9266 22.291L32.9946 36.7802L12.9187 28.2906L63.4834 9.30162L45.2248 61.8889Z" fill="#D0A144"/></g><defs><clipPath id="nclip0_964_13908"><path fill="#fff" transform="translate(.5)" d="M0 0H72V72H0z"/></clipPath></defs></symbol></svg>